# xmcd
#
# Track frame offsets: 
#        150
#        15568
#        33576
#        55922
#        74404
#        90661
#        108844
#        127626
#        145342
#        163470
#        182750
#        197716
#        214474
#        231838
#
# Disc length: 3327 seconds
#
# Revision: 1
# Processed by: cddbd v1.5.2PL0 Copyright (c) Steve Scherf et al.
# Submitted via: ExactAudioCopyFreeDBPlugin 1.0
#
DISCID=c90cfd0e
DTITLE=Carrie Underwood - Blown Away
DYEAR=2012
DGENRE=Country
TTITLE0=Good Girl
TTITLE1=Blown Away
TTITLE2=Two Black Cadillacs
TTITLE3=See You Again
TTITLE4=Do You Think About Me
TTITLE5=Forever Changed
TTITLE6=Nobody Ever Told You
TTITLE7=One Way Ticket
TTITLE8=Thank God for Hometowns
TTITLE9=Good in Goodbye
TTITLE10=Leave Love Alone
TTITLE11=Cupid’s Got a Shotgun
TTITLE12=Wine After Whiskey
TTITLE13=Who Are You
EXTD=
EXTT0=
EXTT1=
EXTT2=
EXTT3=
EXTT4=
EXTT5=
EXTT6=
EXTT7=
EXTT8=
EXTT9=
EXTT10=
EXTT11=
EXTT12=
EXTT13=
PLAYORDER=
